<svg xmlns="http://www.w3.org/2000/svg"  viewBox="0 0 40 40" width="60px" height="60px"><path fill="#b6dcfe" d="M27,37.5c-1.378,0-2.5-1.122-2.5-2.5V21.5h5v4.382l-2,4v5.655l0.333,0.118 c0.835,0.297,1.441,1.007,1.616,1.845H27z"/><path fill="#4788c7" d="M29,22v3.764l-1.894,3.789L27,29.764V30v5.184v0.706l0.665,0.236 c0.456,0.162,0.827,0.477,1.061,0.874H27c-1.103,0-2-0.897-2-2v-9v-4H29 M30,21h-6v5v9c0,1.65,1.35,3,3,3h3 c0-1.304-0.837-2.403-2-2.816V30l2-4V21L30,21z"/><path fill="#b6dcfe" d="M13,37.5c-1.378,0-2.5-1.122-2.5-2.5v-6.882l0.809-1.618h1.248l0.139-0.272 c0.312-0.609,0.704-1.479,0.799-2.159L13.5,23.5h8v1h-0.846l-0.122,0.324c-0.843,2.237-5.376,6.245-6.696,6.704L13.5,31.645v3.892 l0.333,0.118c0.835,0.297,1.441,1.007,1.616,1.845H13z"/><path fill="#4788c7" d="M20.308,24l-0.244,0.648c-0.785,2.085-5.167,5.982-6.393,6.408L13,31.289V32v3.184v0.706 l0.665,0.236c0.456,0.162,0.827,0.477,1.061,0.874H13c-1.103,0-2-0.897-2-2v-4v-2.764L11.618,27h0.633h0.611l0.279-0.544 c0.48-0.936,0.766-1.716,0.849-2.319L14,24.069V24H20.308 M22,23h-9.726c0.22,0.265,0.461,0.514,0.726,0.734 c0,0.088,0,0.171,0,0.266c-0.075,0.536-0.379,1.279-0.749,2H11l-1,2v3v4c0,1.65,1.35,3,3,3h3c0-1.304-0.837-2.403-2-2.816V32 c1.437-0.5,6.094-4.594,7-7h1V23L22,23z"/><path fill="#dff0fe" d="M21,38.5c-1.378,0-2.5-1.122-2.5-2.5l1.052-10.5h-3.898l-0.122,0.324 c-0.814,2.162-5.221,5.191-6.696,5.704L8.5,31.645v4.892l0.333,0.118c0.835,0.297,1.441,1.007,1.616,1.845H8 c-1.378,0-2.5-1.122-2.5-2.5v-6.818c0.154-0.179,0.355-0.396,0.579-0.638C7.324,27.193,8.366,26,8.495,25.069l0.005-0.57 l-0.181-0.15C7.163,23.391,6.5,21.988,6.5,20.5c0-0.266,0.026-0.544,0.079-0.85l0.06-0.345l-0.303-0.174 C4.429,18.037,2.5,15.58,2.5,13c0-2.878,2.622-5.5,5.5-5.5l1.185,0.007c1.547,0,3.724-0.12,4.759-1.153 C14.303,5.997,14.5,5.516,14.5,5c0-0.855,0.645-1.5,1.5-1.5c0.841,0,1.5,0.674,1.5,1.536c0,1.395-0.519,2.745-1.387,3.61 c-1.663,1.658-4.245,1.871-6.309,1.871c-0.314,0-0.609-0.005-0.878-0.009L8,10.5c-1.168,0-2.5,1.332-2.5,2.5 c0,1.681,1.193,3.125,2.837,3.435l0.202,0.038l0.17-0.115C9.538,15.796,10.503,15.5,11.5,15.5H25c0.729,0,1.157-0.389,1.474-1.342 l0.91-4.529l6.073,1.735l-0.954,8.58C32.075,23.928,29.916,26.5,27,26.5h-1.25l-3.223,4.297l-0.957,5.738l0.371,0.151 c0.789,0.322,1.345,1.005,1.509,1.813H21z"/><path fill="#4788c7" d="M16,4c0.561,0,1,0.455,1,1.036c0,1.265-0.464,2.482-1.24,3.256 c-1.533,1.529-3.988,1.725-5.955,1.725c-0.311,0-0.604-0.005-0.87-0.009C8.707,10.004,8.498,10,8.309,10H8c-1.458,0-3,1.542-3,3 c0,1.921,1.364,3.573,3.244,3.926l0.405,0.076l0.341-0.231C9.735,16.267,10.603,16,11.5,16H15h10c1.244,0,1.708-0.961,1.949-1.684 l0.02-0.059l0.012-0.061l0.787-3.937l5.145,1.47l-0.907,8.164C31.607,23.603,29.643,26,27,26h-1h-0.5l-0.3,0.4l-3,4l-0.146,0.195 l-0.04,0.241l-0.871,5.224l-0.131,0.789l0.741,0.302c0.423,0.172,0.763,0.475,0.98,0.85H21c-1.088,0-1.976-0.873-1.999-1.955 l0.995-9.945l0.11-1.1H19h-3h-0.692l-0.244,0.648c-0.753,2-5.02,4.93-6.393,5.408L8,31.289V32v4.184v0.706l0.665,0.236 C9.121,37.288,9.492,37.603,9.726,38H8c-1.103,0-2-0.897-2-2v-4v-2.629c0.129-0.145,0.282-0.309,0.446-0.488 c1.35-1.464,2.395-2.669,2.544-3.745L9,25.069V25v-0.266v-0.47l-0.362-0.3C7.597,23.101,7,21.838,7,20.5 c0-0.237,0.023-0.487,0.071-0.764l0.12-0.69l-0.607-0.349C4.803,17.675,3,15.39,3,13c0-2.57,2.43-5,5-5l0.316,0l0.277,0.003 c0.174,0.002,0.373,0.005,0.591,0.005c1.636,0,3.946-0.135,5.112-1.299C14.75,6.257,15,5.65,15,5C15,4.43,15.43,4,16,4 M16,3 c-1.125,0-2,0.875-2,2c0,0.507-0.242,0.834-0.409,1c-0.911,0.909-3.032,1.007-4.406,1.007C8.839,7.007,8.541,7.001,8.321,7H8 c-3.139,0-6,2.861-6,6c0,2.641,1.901,5.31,4.086,6.565C6.033,19.87,6,20.181,6,20.5c0,1.698,0.78,3.223,2,4.234 C8,24.821,8,24.905,8,25c-0.156,1.125-2.313,3.156-3,4v3v4c0,1.65,1.35,3,3,3h3c0-1.304-0.837-2.403-2-2.816V32 c1.437-0.5,6.094-3.594,7-6h3l-1,10c0,1.65,1.35,3,3,3h3c0-1.257-0.774-2.33-1.871-2.776L23,31l3-4h1c2.875,0,5.5-2.344,6-7l1-9 l-7-2l-1,5c-0.281,0.844-0.578,1-1,1H15h-3.5c-1.135,0-2.192,0.349-3.071,0.944C7.035,15.681,6,14.478,6,13c0-0.894,1.106-2,2-2 h0.309c0.408,0,0.92,0.017,1.495,0.017c2.027,0,4.842-0.203,6.661-2.017C17.47,7.999,18,6.518,18,5.036C18,3.911,17.125,3,16,3 L16,3z"/><path fill="#dff0fe" d="M31,15.5c-3.661,0-6.5-3.494-6.5-6.5V2.425l2.044,2.556l0.383-0.261C28.097,3.922,29.505,3.5,31,3.5 s2.903,0.422,4.073,1.22l0.383,0.261L37.5,2.425V9C37.5,12.006,34.661,15.5,31,15.5z"/><path fill="#4788c7" d="M37,3.851V9c0,2.718-2.676,6-6,6s-6-3.282-6-6V3.851l0.865,1.081l0.579,0.724l0.766-0.523 C28.295,4.392,29.606,4,31,4s2.705,0.392,3.791,1.133l0.766,0.523l0.579-0.724L37,3.851 M38,1l-2.646,3.307 C34.159,3.491,32.647,3,31,3s-3.159,0.491-4.354,1.307L24,1v8c0,3.314,3.134,7,7,7s7-3.686,7-7V1L38,1z"/><path fill="#98ccfd" d="M27.016 7.016c0 1.013-.089 2.01.435 2.533.58.58 1.416.435 2.533.435 0-1.21.05-2.049-.435-2.533C28.97 6.871 28.448 7.016 27.016 7.016zM34.994 7.016c0 1.013.037 2.062-.435 2.533-.579.58-1.416.435-2.533.435 0-1.21-.05-2.049.435-2.533C33.041 6.871 33.563 7.016 34.994 7.016z"/><path fill="#4788c7" d="M31 12L30.121 11.464 30.326 11 31.668 11 31.883 11.461z"/><path fill="#4788c7" d="M31.75 11.5h-1.5c-.138 0-.25-.112-.25-.25l0 0c0-.138.112-.25.25-.25h1.5c.138 0 .25.112.25.25l0 0C32 11.388 31.888 11.5 31.75 11.5zM28.5 8A.5.5 0 1 0 28.5 9 .5.5 0 1 0 28.5 8zM33.5 8A.5.5 0 1 0 33.5 9 .5.5 0 1 0 33.5 8z"/></svg>