<svg xmlns="http://www.w3.org/2000/svg"  viewBox="0 0 40 40" width="60px" height="60px"><path fill="#98ccfd" d="M7,38.5c-1.379,0-2.5-1.122-2.5-2.5v-7l0.909-4.5h2.093c0.263,0,0.48-0.204,0.499-0.466 c0.043-0.625,0.067-1.288,0.085-2.004c2.191,2.099,7.505,2.416,9.362,2.462l-0.103,1.035c-1.623,0.241-2.699,1.731-3.432,2.745 c-0.111,0.154-0.215,0.297-0.311,0.423c-1.275,1.666-3.341,3.136-4.821,3.854C8.609,32.634,8.5,32.809,8.5,33v3 c0,0.276,0.224,0.5,0.5,0.5c1.207,0,2.218,0.86,2.45,2H7z"/><path fill="#4788c7" d="M8.555,23.034c2.346,1.502,6.25,1.862,8.343,1.943l-0.013,0.136 c-1.616,0.429-2.692,1.919-3.376,2.867c-0.108,0.15-0.209,0.289-0.302,0.412c-1.226,1.6-3.215,3.016-4.643,3.708 C8.219,32.268,8,32.617,8,33v3c0,0.552,0.448,1,1,1c0.739,0,1.385,0.403,1.732,1H7c-1.103,0-2-0.897-2-2v-2v-3v-1v-0.901L5.82,25 h1.683c0.526,0,0.962-0.407,0.998-0.932C8.523,23.734,8.541,23.39,8.555,23.034 M7.624,19.887c-0.025,1.57-0.04,2.922-0.121,4.113 H5l-1,5v1v1v3v2c0,1.65,1.35,3,3,3h5c0-1.65-1.35-3-3-3v-3c1.417-0.688,3.611-2.187,5-4c0.75-0.979,1.929-3.006,3.802-3.006L18,24 C14.634,24,7.624,23.253,7.624,19.887L7.624,19.887z"/><path fill="#98ccfd" d="M28,38.5c-1.045,0-1.986-0.67-2.344-1.668c-0.031-0.088-0.087-0.164-0.156-0.22V24.5h3V36 c0,0.276,0.224,0.5,0.5,0.5c1.207,0,2.218,0.86,2.45,2H28z"/><path fill="#4788c7" d="M28,25v11c0,0.552,0.448,1,1,1c0.739,0,1.385,0.403,1.732,1H28c-0.834,0-1.587-0.537-1.873-1.337 c-0.031-0.088-0.074-0.169-0.127-0.243V25H28 M29,24h-4v13h0.185c0.416,1.16,1.517,2,2.815,2h4c0-1.65-1.35-3-3-3V24L29,24z"/><path fill="#fff" d="M28,11.5c-0.106-0.16,0.145-0.965,0.279-1.398c0.179-0.571,0.363-1.162,0.363-1.636 c0-1.689,1.771-2.924,4.23-2.965c1.521,0.804,4.339,0.962,5.606,0.992C38.273,8.997,36.525,11.5,34,11.5H28z"/><path fill="#4788c7" d="M32.76,6.004c1.43,0.697,3.745,0.907,5.155,0.97C37.555,9.062,36.072,11,34,11h-5.462 c0.063-0.248,0.154-0.538,0.219-0.748c0.19-0.607,0.386-1.235,0.386-1.786C29.143,7.089,30.65,6.075,32.76,6.004 M33,5 c-2.998,0-4.857,1.592-4.857,3.466C28.143,9.615,26.72,12,28,12c1.187,0,3.07,0,6,0c2.998,0,5-3.088,5-6 C37.558,6,34.427,5.828,33,5L33,5z"/><path fill="#dff0fe" d="M25.006,38.5c-1.148,0-1.97-0.438-2.515-2.621l-2-8c-0.056-0.223-0.256-0.379-0.485-0.379 c-0.756,0-1.482-0.069-2.718-0.913c-0.996-0.681-2.224-1.087-3.282-1.087c-1.554,0-2.817,1.43-3.739,2.475 c-0.222,0.251-0.427,0.484-0.614,0.672c-2.051,2.05-2.968,2.784-4.905,3.922C4.594,32.659,4.5,32.823,4.5,33v3 c0,0.276,0.224,0.5,0.5,0.5c1.207,0,2.218,0.86,2.45,2H4c-1.379,0-2.5-1.122-2.5-2.5v-5.85C2.128,29.146,4.506,24.459,4.506,19 c0-3.033,2.468-5.5,5.5-5.5h9c0.133,0,0.26-0.053,0.354-0.146l1-1c0.051-0.05,0.09-0.111,0.114-0.178l3-8 c0.556-1.475,2.14-2.676,3.532-2.676h2c2.458,0,3.524,2.43,4.098,3.736c1.057,2.407-0.287,5.595-1.382,6.353 C30.859,12.177,30.5,14.101,30.5,15v6c0,3.232-1.935,5.97-4.6,6.51c-0.232,0.047-0.4,0.252-0.4,0.49v8c0,0.276,0.224,0.5,0.5,0.5 c1.21,0,2.223,0.86,2.455,2H25.006z"/><path fill="#4788c7" d="M29.006,2c1.967,0,2.91,1.774,3.656,3.473c0.984,2.241-0.4,5.134-1.219,5.7 C30.353,11.917,30,14.072,30,15v6c0,2.995-1.766,5.527-4.199,6.02C25.335,27.114,25,27.524,25,28v8c0,0.552,0.448,1,1,1 c0.741,0,1.389,0.403,1.737,1h-2.731c-0.832,0-1.51-0.165-2.03-2.243l-2-8C20.865,27.312,20.465,27,20.006,27 c-0.696,0-1.317-0.061-2.436-0.826C16.495,25.439,15.162,25,14.006,25c-1.779,0-3.129,1.528-4.114,2.644 c-0.214,0.243-0.412,0.468-0.593,0.649c-2.014,2.014-2.913,2.733-4.805,3.845C4.188,32.317,4,32.645,4,33v3c0,0.552,0.448,1,1,1 c0.739,0,1.385,0.403,1.732,1H4c-1.103,0-2-0.897-2-2v-5.714C2.766,28.982,5.006,24.345,5.006,19c0-2.757,2.243-5,5-5h8h1 c0.265,0,0.52-0.105,0.707-0.293l1-1c0.101-0.101,0.179-0.222,0.229-0.356l3-7.999C24.43,3.055,25.804,2,27.006,2H29.006 M29.006,1 h-2c-1.696,0-3.403,1.412-4,3l-3,8c-0.247,0.247-0.757,0.757-1,1c-0.235,0-0.765,0-1,0h-8c-3.314,0-6,2.686-6,6 c0,5.875-2.802,10.729-3.006,11v6c0,1.65,1.35,3,3,3h4c0-1.65-1.35-3-3-3v-3c1.941-1.14,2.909-1.903,5.006-4 c0.947-0.947,2.329-3,4-3c0.936,0,2.071,0.365,3,1c1.271,0.869,2.082,1,3,1l2,8c0.521,2.083,1.35,3,3,3h4c0-1.65-1.356-3-3.006-3 v-8c3.081-0.624,5-3.729,5-7v-6c0-0.977,0.409-2.593,1.006-3c1.276-0.882,2.729-4.292,1.571-6.929C32.984,3.719,31.815,1,29.006,1 L29.006,1z"/><g><path fill="#b6dcfe" d="M27.992,15.5c-1.21,0-2.418-0.973-3.152-2.539c-0.743-1.583-0.181-5.98,1.001-7.84 C26.089,4.732,26.346,4.5,26.53,4.5c0.921,0,1.964,2.655,2.653,4.412c0.294,0.748,0.57,1.454,0.85,2.049 c0.89,1.896,0.473,3.55-1.087,4.316C28.646,15.425,28.324,15.5,27.992,15.5z"/><path fill="#4788c7" d="M26.566,5.011c0.639,0.228,1.696,2.921,2.153,4.086c0.296,0.754,0.576,1.467,0.862,2.076 c0.772,1.646,0.453,3.013-0.854,3.655C28.494,14.942,28.247,15,27.992,15c-0.999,0-2.059-0.884-2.7-2.251 C24.414,10.876,25.641,5.603,26.566,5.011 M26.53,4c-1.821,0-3.246,6.822-2.143,9.174C25.237,14.987,26.641,16,27.992,16 c0.402,0,0.799-0.09,1.175-0.274c1.642-0.806,2.422-2.625,1.319-4.977C29.383,8.396,28.206,4,26.53,4L26.53,4z"/></g><path fill="#4788c7" d="M31 7h-1V6c0-.55.45-1 1-1h0c.55 0 1 .45 1 1v0C32 6.55 31.55 7 31 7zM36.009 5.914C36.007 5.943 36 5.97 36 6c0 1.001.738 1.823 1.698 1.97C37.892 7.329 38 6.661 38 6 37.496 6 36.781 5.977 36.009 5.914z"/><g><path fill="#b6dcfe" d="M18.956,27.392c-0.518-0.125-1.05-0.382-1.668-0.804c-0.996-0.681-2.224-1.087-3.282-1.087 c-0.122,0-0.248,0.01-0.379,0.032L3.304,13.566l-0.111-0.139C2.73,12.855,2.37,12.248,2.09,11.57 c-0.22-0.53-0.384-1.116-0.481-1.741C2.103,12.266,4.92,13.5,10,13.5h9.213l1.223-1.223L22.5,6.773V23 C22.5,25.111,21.016,26.942,18.956,27.392z M1.533,9.196C1.335,6.763,2.126,3.877,4.496,1.504C2.044,3.959,1.529,6.941,1.529,9.012 C1.529,9.074,1.53,9.135,1.533,9.196z"/><path fill="#4788c7" d="M22,9.531V23c0,1.837-1.266,3.436-3.038,3.877c-0.425-0.119-0.864-0.341-1.392-0.703 C16.495,25.439,15.162,25,14.006,25c-0.057,0-0.114,0.002-0.172,0.006L3.763,13.333l-0.057-0.066l-0.125-0.155 c-0.092-0.113-0.179-0.228-0.263-0.345C4.817,13.587,7.048,14,10,14l0.036,0l0.002,0h7.968h1h0.414l0.293-0.293l1-1l0.153-0.153 l0.076-0.203L22,9.531 M4.5,1C4.372,1,4.244,1.049,4.146,1.146C0.769,4.525,0.447,8.912,1.628,11.761 c0.335,0.81,0.749,1.452,1.176,1.98c-0.004,0-0.006-0.001-0.01-0.001l0.085,0.099c0.045,0.054,0.089,0.104,0.134,0.155 l10.429,12.089C13.627,26.033,13.814,26,14.006,26c0.936,0,2.071,0.365,3,1c0.777,0.531,1.382,0.785,1.945,0.903 C21.25,27.455,23,25.424,23,23V4.016L20.006,12c-0.247,0.247-0.757,0.757-1,1c-0.235,0-0.765,0-1,0h-8c-0.002,0-0.004,0-0.006,0 l0,0c-2.006,0-7.971-0.035-7.971-3.988c0-2.265,0.636-4.969,2.824-7.158c0.195-0.195,0.195-0.512,0-0.707 C4.756,1.049,4.628,1,4.5,1L4.5,1z"/></g></svg>